
o ceiling
v 1.000000 1.590000 -1.040000
v 1.000000 1.590000 0.990000
v -1.020000 1.590000 0.990000
v -1.020000 1.590000 -1.040000
vt 0.000000 0.000000
vt 0.100000 0.100000
vt 0.200000 0.200000
vt 0.300000 0.300000
vn 0.000000 -1.000000 0.000000
usemtl ceiling
s 1
f 1/1/1 2/2/1 3/3/1
f 4/4/1 1/1/1 3/3/1
o floor
v 1.000000 0.000000 -1.040000
v -0.990000 0.000000 -1.040000
v -1.010000 -0.000000 0.990000
v 1.000000 -0.000000 0.990000
vt 0.400000 0.400000
vt 0.500000 0.500000
vt 0.600000 0.600000
vt 0.700000 0.700000
vn 0.000000 1.000000 0.000000
usemtl floor
s 1
f 5/5/2 6/6/2 7/7/2
f 8/8/2 5/5/2 7/7/2

o backWall
v 1.000000 1.590000 -1.040000
v -1.020000 1.590000 -1.040000
v -0.990000 0.000000 -1.040000
v 1.000000 0.000000 -1.040000
vt 0.800000 0.800000
vt 0.850000 0.850000
vt 0.900000 0.900000
vt 0.950000 0.950000
vn 0.000000 0.000000 1.000000

usemtl backWall
s 1
f 9/9/3 10/10/3 11/11/3
f 12/12/3 9/9/3 11/11/3